<svg width="205" height="94" viewBox="0 0 205 94" fill="none" xmlns="http://www.w3.org/2000/svg">
<path d="M204.181 0.614502H0.609375V92.5128H204.181V0.614502Z" fill="white"/>
<path d="M204.8 93.1271H0V0H204.8V93.1271ZM1.2288 91.8983H203.571V1.2286H1.2288V91.8983Z" fill="#FDA1EE"/>
<path d="M199.677 31.3345H5.11719V88.0074H199.677V31.3345Z" fill="#FDA1EE"/>
<path d="M183.289 9.83057H185.747V11.8786H188.204V13.9266H190.662V11.8786H193.12V9.83057H195.577V11.8786H193.12V13.9266H190.662V18.0226H193.12V20.0704H195.577V22.1186H193.12V20.0704H190.662V18.0226H188.204V20.0704H185.747V22.1186H183.289V20.0704H185.747V18.0226H188.204V13.9266H185.747V11.8786H183.289V9.83057Z" fill="#FDA1EE"/>
<path d="M41.3591 51.3672V58.1938H39.6524V51.3672H41.3591ZM41.3591 70.1405V71.8472H27.7057V68.4338H29.4124V70.1405H41.3591ZM29.4124 68.4338V66.7272H31.1191V68.4338H29.4124ZM29.4124 54.7805H27.7057V51.3672H29.4124V54.7805ZM29.4124 51.3672V49.6605H31.1191V51.3672H29.4124ZM32.8257 65.0205V63.3138H34.5324V65.0205H32.8257ZM32.8257 66.7272H31.1191V65.0205H32.8257V66.7272ZM36.2391 63.3138H34.5324V61.6072H36.2391V63.3138ZM36.2391 61.6072V59.9005H37.9457V61.6072H36.2391ZM39.6524 59.9005H37.9457V58.1938H39.6524V59.9005ZM39.6524 51.3672H37.9457V49.6605H39.6524V51.3672ZM31.1191 49.6605V47.9538H37.9457V49.6605H31.1191ZM62.2741 68.4338H60.5674V59.9005H62.2741V68.4338ZM50.3274 68.4338H48.6207V54.7805H50.3274V58.1938H52.0341V59.9005H50.3274V68.4338ZM50.3274 70.1405V68.4338H52.0341V70.1405H50.3274ZM50.3274 54.7805V51.3672H52.0341V54.7805H50.3274ZM60.5674 68.4338V70.1405H58.8607V68.4338H60.5674ZM60.5674 59.9005H58.8607V58.1938H60.5674V59.9005ZM60.5674 47.9538V49.6605H55.4474V47.9538H60.5674ZM52.0341 51.3672V49.6605H55.4474V51.3672H52.0341ZM52.0341 70.1405H58.8607V71.8472H52.0341V70.1405ZM52.0341 58.1938V56.4872H58.8607V58.1938H52.0341ZM81.4824 51.3672H79.7757V47.9538H81.4824V51.3672ZM69.5357 68.4338H71.2424V71.8472H69.5357V68.4338ZM71.2424 68.4338V65.0205H72.9491V68.4338H71.2424ZM72.9491 65.0205V61.6072H74.6557V65.0205H72.9491ZM74.6557 61.6072V58.1938H76.3624V61.6072H74.6557ZM76.3624 54.7805H78.0691V58.1938H76.3624V54.7805ZM79.7757 51.3672V54.7805H78.0691V51.3672H79.7757ZM102.379 51.3672V68.4338H100.672V51.3672H102.379ZM100.672 68.4338V70.1405H98.9657V68.4338H100.672ZM88.7257 51.3672H90.4324V68.4338H88.7257V51.3672ZM100.672 51.3672H98.9657V49.6605H100.672V51.3672ZM92.1391 51.3672H90.4324V49.6605H92.1391V51.3672ZM90.4324 68.4338H92.1391V70.1405H90.4324V68.4338ZM92.1391 49.6605V47.9538H98.9657V49.6605H92.1391ZM92.1391 70.1405H98.9657V71.8472H92.1391V70.1405ZM123.294 51.3672V56.4872H121.587V51.3672H123.294ZM123.294 68.4338H121.587V61.6072H123.294V68.4338ZM111.347 68.4338H109.641V65.0205H111.347V68.4338ZM111.347 70.1405V68.4338H113.054V70.1405H111.347ZM111.347 54.7805H109.641V51.3672H111.347V54.7805ZM111.347 51.3672V49.6605H113.054V51.3672H111.347ZM114.761 59.9005V58.1938H119.881V59.9005H114.761ZM121.587 68.4338V70.1405H119.881V68.4338H121.587ZM121.587 59.9005V61.6072H119.881V59.9005H121.587ZM121.587 56.4872V58.1938H119.881V56.4872H121.587ZM121.587 51.3672H119.881V49.6605H121.587V51.3672ZM113.054 49.6605V47.9538H119.881V49.6605H113.054ZM113.054 70.1405H119.881V71.8472H113.054V70.1405ZM142.502 51.3672H140.796V47.9538H142.502V51.3672ZM130.556 68.4338H132.262V71.8472H130.556V68.4338ZM132.262 68.4338V65.0205H133.969V68.4338H132.262ZM133.969 65.0205V61.6072H135.676V65.0205H133.969ZM135.676 61.6072V58.1938H137.382V61.6072H135.676ZM137.382 54.7805H139.089V58.1938H137.382V54.7805ZM140.796 51.3672V54.7805H139.089V51.3672H140.796ZM154.866 71.8472H153.159V51.3672H151.452V49.6605H153.159V47.9538H154.866V71.8472ZM149.746 53.0738V51.3672H151.452V53.0738H149.746ZM177.489 51.3672V68.4338H175.782V51.3672H177.489ZM175.782 68.4338V70.1405H174.076V68.4338H175.782ZM163.836 51.3672H165.542V68.4338H163.836V51.3672ZM175.782 51.3672H174.076V49.6605H175.782V51.3672ZM167.249 51.3672H165.542V49.6605H167.249V51.3672ZM165.542 68.4338H167.249V70.1405H165.542V68.4338ZM167.249 49.6605V47.9538H174.076V49.6605H167.249ZM167.249 70.1405H174.076V71.8472H167.249V70.1405Z" fill="black"/>
</svg>
